# xmcd
#
# Track frame offsets:
# 150
# 15062
# 29072
# 48367
# 64055
# 79055
# 104507
# 117125
# 146530
# 161565
# 183292
# 195292
#
# Disc length: 2763 seconds
#
#
# Revision: 0
# Processed by: cddbd v1.5.2PL0 Copyright (c) Steve Scherf et al.
# Submitted via: FreeRIP 2.35 
#
DISCID=920ac90c
DTITLE=Jarmo Lahtinen - Serenade in Blues
DYEAR=2004
DGENRE=Blues
TTITLE0=The Last Train
TTITLE1=Lies
TTITLE2=Blue Overtook Me
TTITLE3=Old Rockin' Feels Good
TTITLE4=Just Wanna Make Love to You
TTITLE5=Louise, Louise
TTITLE6=Duncan's Blues
TTITLE7=My Mama Told Me
TTITLE8=Magnolia
TTITLE9=Serenade in Blues
TTITLE10=Open Country
TTITLE11=C'mon Otis
EXTD=
EXTT0=
EXTT1=
EXTT2=
EXTT3=
EXTT4=
EXTT5=
EXTT6=
EXTT7=
EXTT8=
EXTT9=
EXTT10=
EXTT11=
PLAYORDER=
